<?xml version="1.0" standalone="no"?>
<!DOCTYPE svg PUBLIC "-//W3C//DTD SVG 20010904//EN"
 "http://www.w3.org/TR/2001/REC-SVG-20010904/DTD/svg10.dtd">
<svg version="1.0" xmlns="http://www.w3.org/2000/svg"
 width="643.000000pt" height="643.000000pt" viewBox="0 0 643.000000 643.000000"
 preserveAspectRatio="xMidYMid meet">
<metadata>
Created by potrace 1.14, written by Peter Selinger 2001-2017
</metadata>
<g transform="translate(0.000000,643.000000) scale(0.100000,-0.100000)"
fill="#000000" stroke="none">
<path d="M2766 4993 c-1 -1 -78 -4 -171 -8 -94 -3 -197 -7 -230 -10 -33 -2
-98 -7 -145 -10 -47 -4 -98 -8 -115 -9 -16 -2 -64 -7 -105 -10 -41 -4 -86 -9
-100 -11 -84 -13 -118 -18 -140 -20 -150 -18 -452 -88 -645 -149 -13 -4 -30
-11 -133 -53 -598 -243 -910 -673 -967 -1333 -5 -57 -5 -333 0 -382 8 -86 26
-211 30 -218 2 -3 6 -26 10 -50 14 -102 78 -294 145 -435 107 -230 252 -416
451 -580 121 -100 368 -220 514 -250 275 -56 538 -39 801 50 194 66 350 153
711 396 281 189 382 237 514 244 152 9 258 -39 632 -289 415 -276 613 -368
897 -417 84 -14 336 -18 420 -6 508 72 926 425 1139 962 34 87 83 247 97 318
19 100 25 143 39 280 11 109 5 394 -10 475 -6 37 -17 103 -19 125 -2 12 -6 31
-9 42 -3 11 -8 31 -11 45 -11 57 -37 145 -48 157 -6 7 -8 13 -5 13 6 0 -19 62
-61 150 -51 106 -152 248 -239 337 -106 106 -119 117 -231 192 -231 156 -568
281 -927 346 -102 18 -260 43 -315 49 -122 14 -222 24 -330 31 -47 3 -110 7
-140 10 -142 11 -433 18 -848 19 -249 1 -454 0 -456 -1z"/>
</g>
</svg>
